<?xml version="1.0" encoding="utf-8" ?>
<!-- Generator: Adobe Illustrator 19.2.1, SVG Export Plug-In . SVG Version: 6.00 Build 0)  -->
<svg version="1.1" id="Layer_1" xmlns="http://www.w3.org/2000/svg" xmlns:xlink="http://www.w3.org/1999/xlink" x="0px" y="0px"
     viewBox="0 0 113 34" style="enable-background:new 0 0 113 34;" xml:space="preserve">
<style type="text/css">
	.st0{fill:#01426A;}
</style>
<g>
<g>
<path class="st0" d="M54.4,1.5L41.8,22.8c-1.3,2.2-2.1,4.4-2.3,6.5h-4.9c0.3-2.7,1.4-5.2,3.5-8.9L47,5.5c1.8-3,3.5-4,6.7-4
			C53.7,1.5,54.4,1.5,54.4,1.5z" />
<path class="st0" d="M53.4,23.8c-0.9,0.9-2.8,2.2-4.2,2.2c-1.1,0-1.1-1-0.4-2.4c2.7-5.1,5.5-7.8,9-7.8h0.6L53.4,23.8z M58.1,12.9
			c-6.4,0-10.3,3.7-13.9,11.9c-0.9,2.1-1.4,4.6,1.6,4.5c1.7,0,4.5-1,6.5-2.4c-0.1,0.8-0.2,1.8-0.2,2.3h4.5c0.2-1.8,0.8-3.9,2.3-6.6
			l5.6-9.4C62.5,13.1,60.3,12.9,58.1,12.9z" />
<path class="st0" d="M99.7,23.8c-0.9,0.9-2.8,2.2-4.2,2.2c-1.1,0-1.1-1-0.4-2.4c2.7-5.1,5.5-7.8,9-7.8h0.6L99.7,23.8z M104.4,12.9
			c-6.4,0-10.3,3.7-13.9,11.9c-0.9,2.1-1.4,4.6,1.6,4.5c1.7,0,4.5-1,6.5-2.4c-0.2,0.7-0.3,1.6-0.2,2.2h4.5c0.2-1.8,0.8-3.9,2.3-6.6
			l5.6-9.4C108.8,13.1,106.6,12.9,104.4,12.9z" />
<path class="st0" d="M89.7,33.8h-1.5c-1.9,0-3.5-1.3-4.1-3.2l-2.3-8.5l-4.1,7h-4.8L86.3,6.5c1.8-3,3.5-4,6.7-4h0.6l-8.9,15.1
			l6.7-4.6h5.3l-11.2,7.8l0,0L89.7,33.8z" />
<path class="st0" d="M45.5,0.2c-4.5,0-6.9,1.2-11.3,4.4l-15,10.8H9.7c-2.8,0-5,0.1-6.8,1.8l-2.5,2.3c0,0,7.2-0.3,14-0.5L0,29.3
			h6.2l14.7-10.6c2.9-0.1,4.8-0.2,4.8-0.2c3.4-0.1,5.3-3.1,5.3-3.1h-5.6l11.9-8.6l-8.8,14.3c-1.9,3.3-2.8,5.6-3.2,8.2h5.1
			c0.2-2.2,0.9-4.3,2.3-6.5L44.7,2.7c0.9-1.4,1.6-2.5,1.6-2.5H45.5z" />
<path class="st0" d="M69.5,17.5c-0.1,0.4,0.1,0.7,1,1.3l1.4,0.9c1.5,1,2.1,2.5,1.9,3.6c-0.5,3.3-3,6.1-8.2,6.1
			c-2.3,0-3.3-0.1-6.1-0.5l2.1-3.4c1.9,0.3,3,0.5,4.4,0.5c2,0,2.8-0.9,2.9-1.6c0.1-0.4-0.1-0.9-1.1-1.6l-1.1-0.8
			c-1.8-1.3-2.2-2.3-2-3.7c0.4-3,3.8-5.2,8.7-5.2c1.5,0,3.2,0.1,4.9,0.3l-1.9,3.3c-1.2-0.1-3.1-0.2-4.4-0.1
			C70.4,16.4,69.6,16.9,69.5,17.5z" />
	</g>
<path class="st0" d="M110.4,24.4c1.4,0,2.6,1.2,2.6,2.6s-1.1,2.6-2.6,2.6c-1.4,0-2.5-1.2-2.5-2.6C108,25.6,109.1,24.4,110.4,24.4z
		 M110.4,29.1c1.1,0,2-0.9,2-2.1s-0.9-2.1-2-2.1s-2,0.9-2,2.1S109.4,29.1,110.4,29.1z M110.1,28.4h-0.5v-2.8h1c0.5,0,1,0.4,1,0.9
		c0,0.4-0.3,0.7-0.6,0.8l0.6,1.1H111l-0.6-1h-0.2L110.1,28.4L110.1,28.4z M110.5,26.9c0.3,0,0.5-0.2,0.5-0.4c0-0.3-0.2-0.4-0.5-0.4
		h-0.4v0.8H110.5z" />
</g>
</svg>
